<svg xmlns="http://www.w3.org/2000/svg" viewBox="0 0 490.35 495.76" xmlns:v="https://vecta.io/nano"><path d="M170.09 106.78L75.18 352.96l79.09-30.65 52.4-135.45zm108.76 80.08l52.4 135.45 79.1 30.65-94.92-246.18zm-72.18 109.69l36.82-17.44 35.36 17.44-37.15-88.52z" fill="#004aab"/><path d="M245.18 25.46c-122.84 0-222.42 99.58-222.42 222.42S122.34 470.3 245.18 470.3 467.6 370.72 467.6 247.88c-.01-122.84-99.58-222.42-222.42-222.42zm146.84 369.26c-37.6 37.59-89.47 60.82-146.84 60.82s-109.24-23.23-146.84-60.82c-37.59-37.6-60.82-89.47-60.82-146.84s23.23-109.24 60.82-146.84c37.6-37.59 89.47-60.82 146.84-60.82s109.24 23.23 146.84 60.82c37.59 37.6 60.82 89.47 60.82 146.84s-23.23 109.24-60.82 146.84z" fill="#15165b"/></svg>